<svg version="1.1" xmlns="http://www.w3.org/2000/svg" xmlns:xlink="http://www.w3.org/1999/xlink" width="710.58773" height="249.12529" viewBox="0,0,710.58773,249.12529"><g transform="translate(112.03515,-145.31182)"><g data-paper-data="{&quot;isPaintingLayer&quot;:true}" fill-rule="nonzero" stroke-linecap="butt" stroke-linejoin="miter" stroke-miterlimit="10" stroke-dasharray="" stroke-dashoffset="0" style="mix-blend-mode: normal"><text transform="translate(324.70169,168.81182) scale(0.5,0.5)" font-size="40" xml:space="preserve" fill="#000000" fill-rule="nonzero" stroke="#000000" stroke-width="8" stroke-linecap="butt" stroke-linejoin="miter" stroke-miterlimit="10" stroke-dasharray="" stroke-dashoffset="0" font-family="Sans Serif" font-weight="normal" text-anchor="start" style="mix-blend-mode: normal"><tspan x="0" dy="0">hamburger</tspan></text><path d="M-45.45813,313.87264v-16.05793h643.98826v16.05793z" data-paper-data="{&quot;index&quot;:null}" fill="#1c6d16" stroke="none" stroke-width="0"/><path d="M-32.75586,302.03875v-24.57807h631.30844v24.57807z" data-paper-data="{&quot;index&quot;:null}" fill="#23a719" stroke="none" stroke-width="0"/><path d="M-36.15669,291.11517v-18.20598h634.58623v18.20598z" data-paper-data="{&quot;index&quot;:null}" fill="#10ea00" stroke="none" stroke-width="0"/><path d="M-112.03515,394.4371v-80.58078h690.24773v80.58078z" data-paper-data="{&quot;index&quot;:null}" fill="#7f501a" stroke="none" stroke-width="0"/><g data-paper-data="{&quot;index&quot;:null}"><path d="M405.87012,275.47316c-23.07532,0 -41.78156,-18.70624 -41.78156,-41.78156c0,-23.07532 18.70624,-41.78156 41.78156,-41.78156c23.07532,0 41.78156,18.70624 41.78156,41.78156c0,23.07532 -18.70624,41.78156 -41.78156,41.78156z" fill="#00ff12" stroke="#ffffff" stroke-width="7.5"/><path d="M405.87012,275.47316c-23.07532,0 -41.78156,-18.70624 -41.78156,-41.78156c0,-23.07532 18.70624,-41.78156 41.78156,-41.78156c23.07532,0 41.78156,18.70624 41.78156,41.78156c0,23.07532 -18.70624,41.78156 -41.78156,41.78156z" fill="#ff0000" stroke="#000000" stroke-width="4.5"/></g><path d="M425.50164,217.37379c0,5.93705 -4.81295,10.75 -10.75,10.75c-5.93705,0 -10.75,-4.81295 -10.75,-10.75c0,-5.93705 4.81295,1.29 10.75,1.29c5.93705,0 10.75,-7.22705 10.75,-1.29z" data-paper-data="{&quot;index&quot;:null}" fill="#000000" stroke="none" stroke-width="0.5"/><path d="M393.50164,217.37379c0,5.93706 -4.81294,10.75 -10.75,10.75c-5.93706,0 -10.75,-4.81294 -10.75,-10.75c0,-5.93705 4.81295,1.29 10.75,1.29c5.93706,0 10.75,-7.22706 10.75,-1.29z" data-paper-data="{&quot;index&quot;:null}" fill="#000000" stroke="none" stroke-width="0.5"/><path d="M416.58118,238.67585c1.64183,0 9.62761,0.80472 10.71783,3.99615c1.12904,3.30506 -5.59449,-3.95804 -5.59449,-1.88118c0,4.08232 -2.70932,7.3917 -6.05144,7.3917c-3.34212,0 -6.05144,-3.30938 -6.05144,-7.3917c0,-4.08232 3.63741,-2.11497 6.97953,-2.11497z" data-paper-data="{&quot;index&quot;:null}" fill="#ff0000" stroke="none" stroke-width="NaN"/><path d="M380.93738,232.80726c3.34212,0 3.26717,3.60123 3.26717,7.68355c0,4.08231 -2.70933,7.39169 -6.05145,7.39169c-3.34212,0 -6.05145,-3.30937 -6.05145,-7.39169c0,-4.08232 5.49361,-7.68355 8.83573,-7.68355z" data-paper-data="{&quot;index&quot;:null}" fill="#ff0000" stroke="none" stroke-width="NaN"/><path d="M409.00164,233.8578c0,6.31268 -4.81294,11.43012 -10.75,11.43012c-5.93706,0 -10.75,-5.11745 -10.75,-11.43012c0,-6.31267 4.81294,1.37161 10.75,1.37161c5.93706,0 10.75,-7.6843 10.75,-1.37161z" data-paper-data="{&quot;index&quot;:null}" fill="#000000" stroke="none" stroke-width="0.5"/></g></g></svg>