<svg version="1.1" xmlns="http://www.w3.org/2000/svg" xmlns:xlink="http://www.w3.org/1999/xlink" width="710.58773" height="354.4371" viewBox="0,0,710.58773,354.4371"><g transform="translate(112.03515,-40)"><g data-paper-data="{&quot;isPaintingLayer&quot;:true}" fill-rule="nonzero" stroke-linecap="butt" stroke-linejoin="miter" stroke-miterlimit="10" stroke-dasharray="" stroke-dashoffset="0" style="mix-blend-mode: normal"><text transform="translate(87.23007,63) scale(0.5,0.5)" font-size="40" xml:space="preserve" fill="#000000" fill-rule="nonzero" stroke="#ffffff" stroke-width="6" stroke-linecap="butt" stroke-linejoin="miter" stroke-miterlimit="10" stroke-dasharray="" stroke-dashoffset="0" font-family="Sans Serif" font-weight="normal" text-anchor="start" style="mix-blend-mode: normal"><tspan x="0" dy="0">he looks happy</tspan></text><text transform="translate(87.23007,63) scale(0.5,0.5)" font-size="40" xml:space="preserve" fill="#000000" fill-rule="nonzero" stroke="#000000" stroke-width="3" stroke-linecap="butt" stroke-linejoin="miter" stroke-miterlimit="10" stroke-dasharray="" stroke-dashoffset="0" font-family="Sans Serif" font-weight="normal" text-anchor="start" style="mix-blend-mode: normal"><tspan x="0" dy="0">he looks happy</tspan></text><path d="M-45.45812,313.87264v-16.05793h643.98826v16.05793z" data-paper-data="{&quot;index&quot;:null}" fill="#1c6d16" stroke="none" stroke-width="0"/><path d="M-32.75585,302.03875v-24.57807h631.30844v24.57807z" data-paper-data="{&quot;index&quot;:null}" fill="#23a719" stroke="none" stroke-width="0"/><path d="M-36.15669,291.11517v-18.20598h634.58623v18.20598z" data-paper-data="{&quot;index&quot;:null}" fill="#10ea00" stroke="none" stroke-width="0"/><path d="M-112.03514,394.4371v-80.58078h690.24773v80.58078z" data-paper-data="{&quot;index&quot;:null}" fill="#7f501a" stroke="none" stroke-width="0"/><g data-paper-data="{&quot;index&quot;:null}" fill="#ff0000"><path d="M405.87013,275.47316c-23.07532,0 -41.78156,-18.70624 -41.78156,-41.78156c0,-23.07532 18.70624,-41.78156 41.78156,-41.78156c23.07532,0 41.78156,18.70624 41.78156,41.78156c0,23.07532 -18.70624,41.78156 -41.78156,41.78156z" stroke="#ffffff" stroke-width="7.5"/><path d="M405.87013,275.47316c-23.07532,0 -41.78156,-18.70624 -41.78156,-41.78156c0,-23.07532 18.70624,-41.78156 41.78156,-41.78156c23.07532,0 41.78156,18.70624 41.78156,41.78156c0,23.07532 -18.70624,41.78156 -41.78156,41.78156z" stroke="#000000" stroke-width="4.5"/></g><path d="M429.50165,226.37379c0,5.93705 -4.81295,10.75 -10.75,10.75c-5.93705,0 -10.75,-4.81295 -10.75,-10.75c0,-5.93705 4.81295,1.29 10.75,1.29c5.93705,0 10.75,-7.22705 10.75,-1.29z" data-paper-data="{&quot;index&quot;:null}" fill="#000000" stroke="none" stroke-width="0.5"/><path d="M392.50165,226.37379c0,5.93706 -4.81294,10.75 -10.75,10.75c-5.93706,0 -10.75,-4.81294 -10.75,-10.75c0,-5.93705 4.81295,1.29 10.75,1.29c5.93706,0 10.75,-7.22706 10.75,-1.29z" data-paper-data="{&quot;index&quot;:null}" fill="#000000" stroke="none" stroke-width="0.5"/><path d="M418.15309,236.93252c3.34212,0 6.05144,11.02598 6.05144,15.1083c0,4.08232 -2.70932,7.3917 -6.05144,7.3917c-3.34212,0 -6.05144,-3.30938 -6.05144,-7.3917c0,-4.08232 2.70932,-15.1083 6.05144,-15.1083z" data-paper-data="{&quot;index&quot;:null}" fill="#ff0000" stroke="none" stroke-width="NaN"/><path d="M381.1531,237.1325c3.34212,0 6.05145,11.02599 6.05145,15.10831c0,4.08231 -2.70933,7.39169 -6.05145,7.39169c-3.34212,0 -6.05145,-3.30937 -6.05145,-7.39169c0,-4.08232 2.70933,-15.10831 6.05145,-15.10831z" data-paper-data="{&quot;index&quot;:null}" fill="#ff0000" stroke="none" stroke-width="NaN"/><path d="M411.00165,237.00478c0,3.98695 -4.81294,7.21902 -10.75,7.21902c-5.93706,0 -10.75,-3.23207 -10.75,-7.21902c0,-3.98695 4.81294,0.86628 10.75,0.86628c5.93706,0 10.75,-4.85324 10.75,-0.86628z" data-paper-data="{&quot;index&quot;:null}" fill="#000000" stroke="none" stroke-width="0.5"/></g></g></svg>