<svg version="1.1" xmlns="http://www.w3.org/2000/svg" xmlns:xlink="http://www.w3.org/1999/xlink" width="695" height="486.5" viewBox="0,0,695,486.5"><defs><linearGradient x1="235.04702" y1="3.5" x2="235.04702" y2="179.5" gradientUnits="userSpaceOnUse" id="color-1"><stop offset="0" stop-color="#848089"/><stop offset="1" stop-color="#555258"/></linearGradient></defs><g transform="translate(107.5,90)"><g data-paper-data="{&quot;isPaintingLayer&quot;:true}" fill-rule="nonzero" stroke="none" stroke-width="0" stroke-linejoin="miter" stroke-miterlimit="10" stroke-dasharray="" stroke-dashoffset="0" style="mix-blend-mode: normal"><path d="M-97.5,207.5v-244h620v244z" data-paper-data="{&quot;index&quot;:null}" fill="#558cff" stroke-linecap="butt"/><path d="M-59.5,181.5l86.53359,-137l43.26679,82l97.62764,-121l85.42418,114l56.57965,-75l39.93858,55l54.36084,-82l103.17466,157z" data-paper-data="{&quot;index&quot;:null}" fill="#4c4a4f" stroke-linecap="round"/><path d="M-48.40595,179.5l86.53359,-137l43.26679,82l97.62764,-121l85.42418,114l56.57965,-75l39.93858,55l54.36084,-82l103.17466,157z" data-paper-data="{&quot;index&quot;:null}" fill="url(#color-1)" stroke-linecap="round"/><path d="M240,142.5c191.91895,0 347.5,48.5771 347.5,108.5c0,59.9229 -155.58105,108.5 -347.5,108.5c-191.91895,0 -347.5,-48.5771 -347.5,-108.5c0,-59.9229 155.58105,-108.5 347.5,-108.5z" data-paper-data="{&quot;index&quot;:null}" fill="#37572b" stroke-linecap="butt"/><path d="M230.92683,396.5c-181.70168,0 -329,-50.14411 -329,-112c0,-61.85589 147.29832,-112 329,-112c181.70168,0 329,50.14411 329,112c0,61.85589 -147.29832,112 -329,112z" data-paper-data="{&quot;index&quot;:null}" fill="#3d6230" stroke-linecap="butt"/><path d="M283,-90c0.27614,0 0.5,0.22386 0.5,0.5c0,0.27614 -0.22386,0.5 -0.5,0.5c-0.27614,0 -0.5,-0.22386 -0.5,-0.5c0,-0.27614 0.22386,-0.5 0.5,-0.5z" data-paper-data="{&quot;index&quot;:null}" fill="#37572b" stroke-linecap="butt"/></g></g></svg>