<svg version="1.1" xmlns="http://www.w3.org/2000/svg" xmlns:xlink="http://www.w3.org/1999/xlink" width="610" height="389.78917" viewBox="0,0,610,389.78917"><g transform="translate(54.5,-5.21084)"><g data-paper-data="{&quot;isPaintingLayer&quot;:true}" fill-rule="nonzero" stroke-linecap="butt" stroke-linejoin="miter" stroke-miterlimit="10" stroke-dasharray="" stroke-dashoffset="0" style="mix-blend-mode: normal"><path d="M-9.5,395v-115h539v115z" fill="#7f501a" stroke="none" stroke-width="0"/><path d="M-24.5,322v-38h541v38z" fill="#1c6d16" stroke="none" stroke-width="0"/><path d="M-37.5,309v-27h566v27z" fill="#23a719" stroke="none" stroke-width="0"/><path d="M-54.5,297v-20h610v20z" fill="#10ea00" stroke="none" stroke-width="0"/><text transform="translate(10.7215,28.84701) scale(0.78544,0.53115)" font-size="40" xml:space="preserve" fill="#000000" fill-rule="nonzero" stroke="#000000" stroke-width="3" stroke-linecap="butt" stroke-linejoin="miter" stroke-miterlimit="10" stroke-dasharray="" stroke-dashoffset="0" font-family="Sans Serif" font-weight="normal" text-anchor="start" style="mix-blend-mode: normal"><tspan x="0" dy="0">this jump is impossible!!11111!</tspan></text><path d="M123.58386,68.72313c2.03433,-0.82691 3.48743,0.33077 3.48743,0.33077l2.09381,1.66813c2.81318,2.24377 5.87582,4.25941 9.02937,6.34961c1.15275,0.76405 2.47037,1.45741 3.4512,2.2956c1.79849,1.53695 2.52932,3.42347 4.31066,4.96687c0.5412,0.46891 1.09479,1.19413 2.08062,1.19611c1.01916,0.00204 2.35131,-1.32209 3.40897,-2.60153c-0.38933,-0.183 -0.67963,-0.43179 -0.81832,-0.71646l-1.24533,-2.34457c-2.40828,-4.53697 -5.67118,-8.8957 -8.22978,-13.40176c-3.97279,-6.99663 -6.41401,-14.16413 -9.54089,-21.27912c0,0 -0.60634,-1.3802 1.81902,-1.72525c2.42536,-0.34505 3.0317,1.03515 3.0317,1.03515c3.09749,7.05333 5.50982,14.15874 9.44796,21.09435c2.23391,3.93422 4.99813,7.75714 7.27282,11.68265c0.34687,-1.17597 0.96721,-2.34945 1.35606,-3.55561c1.10443,-3.42575 2.01752,-6.87529 3.02606,-10.31071l0.69878,-2.78357c0.15585,-0.7005 1.2068,-1.24218 2.48007,-1.24218c1.35671,0 2.461,0.615 2.49899,1.38183l0.16322,2.83814c0.18484,0.45166 0.13068,5.01759 0.13069,5.14109c0.00009,1.59981 0.55923,3.23609 -0.03792,4.7994c-1.07238,2.80748 -3.62142,5.70978 -5.79468,8.28207c-1.77638,2.10254 -4.14304,6.54756 -9.66741,6.55144c-2.36254,0.00166 -4.28603,-1.24692 -5.91938,-2.21831c-0.77504,-0.46094 -3.82705,-4.52369 -4.63361,-5.21295c-3.55471,-3.03778 -8.62879,-5.57708 -12.38753,-8.56846l-2.09381,-1.66813c0,0 -1.4531,-1.15768 0.58124,-1.98459z" fill="#ff0000" stroke="none" stroke-width="0.5"/><path d="M211.94938,53.59963l2.51774,1.72982c1.83553,2.56741 3.60713,5.13365 5.64915,7.65012c0.11791,0.14538 4.21223,5.19008 4.26767,5.27303c2.18455,3.26882 2.65089,6.93173 4.94927,10.17079c0.99394,1.40073 2.71133,2.59771 4.10498,3.8834c0.51136,0.47175 0.63356,1.46683 1.59863,1.39191c1.04045,-0.08077 0.82138,-1.10324 1.34693,-1.62058c0.11987,-0.118 5.24032,-4.5649 5.3456,-4.6633c4.30657,-4.02504 7.93347,-8.16024 11.24128,-12.47112c0.03705,-0.04829 1.13958,-1.48634 2.1917,-2.85609c-6.06455,1.70503 -12.34898,3.44191 -16.69647,6.27106c-0.24956,0.1624 -3.97855,3.47118 -5.06232,4.36688c-0.00418,0.09014 -0.00851,0.18026 -0.01297,0.27035l-5.85387,2.00645c0.41395,-1.05941 0.5737,-2.16336 1.14614,-3.19501c-0.4242,-7.30979 -0.43723,-14.955 1.13049,-22.21841c0.81273,-3.76545 2.52001,-7.54538 3.76775,-11.27314c0,0 0.46778,-1.39755 2.92363,-1.13135c2.45585,0.2662 1.98807,1.66375 1.98807,1.66375c-1.22707,3.66601 -2.9175,7.3847 -3.71674,11.08762c-1.25308,5.80563 -1.17999,11.72791 -1.24335,17.60565c2.26622,-1.73644 4.87118,-3.34302 8.10776,-4.53136c5.22288,-1.91764 11.34476,-3.33223 16.81221,-5.05201l1.8165,-1.03372c0.45241,-0.25745 1.07741,-0.41669 1.76777,-0.41669c1.38071,0 2.5,0.63695 2.5,1.42267c0,0.29895 -0.16203,0.57636 -0.43883,0.80534l-2.75454,2.35129l-0.13968,-0.05299c-4.48707,7.13735 -10.70632,13.94408 -17.97858,20.28103c-1.23206,1.0736 -5.46564,5.14418 -7.81748,5.2212c-3.88319,0.12716 -7.09864,-3.59203 -8.61971,-5.02782c-4.00458,-3.78009 -4.3677,-8.204 -7.09817,-12.27564c-1.16451,-1.7365 -2.74479,-3.37323 -4.11349,-5.06081c-1.96741,-2.42701 -3.6836,-4.89119 -5.3975,-7.37921l-1.11422,-0.73786l-0.25698,0.76407c-0.15061,0.4478 -0.29791,0.89839 -0.44351,1.35109c-0.04894,0.58757 -0.28139,1.25511 -0.61742,1.94864c-1.14934,3.65097 -2.3353,7.37572 -4.37115,10.83388c-0.83984,1.42658 -2.47207,2.65993 -3.72218,3.98561c-0.82971,0.87987 -1.32519,1.89355 -2.49512,2.63776c-0.05878,0.03739 -0.11824,0.07438 -0.17834,0.11099l0.01831,0.00883l-3.2206,2.16348c-0.10122,0.06889 -0.21367,0.13225 -0.33577,0.18916c-0.48328,0.82212 -0.92883,1.64856 -1.32689,2.48009l-0.65259,1.35596c-0.27154,0.61854 -1.25453,1.07673 -2.42557,1.07673c-1.0731,0 -1.98829,-0.38476 -2.34282,-0.92508l-1.83533,-2.61107l0.00561,-0.00128c-0.00741,-0.00764 -0.01481,-0.01529 -0.02219,-0.02294c-2.32706,-2.41304 -3.12052,-5.44684 -5.0203,-7.98214c-3.88042,-5.17852 -8.69655,-9.94959 -14.69103,-14.39277l-1.07693,-0.79823c0,0 -1.52244,-1.12845 0.46054,-1.99482c1.98297,-0.86637 3.50541,0.26208 3.50541,0.26208l1.07693,0.79823c7.26292,5.38337 13.022,11.35309 17.06443,17.76639c0.909,1.44212 2.00773,2.71211 2.57944,4.03879c0.13842,-0.23309 0.27965,-0.46585 0.42348,-0.69828l-0.59324,-2.02557l0.01422,-0.00135l-0.02453,-0.03709c-2.37858,-12.17578 -2.02371,-24.38299 -2.02371,-36.61591c0,0 0,-1.42267 2.5,-1.42267c2.5,0 2.5,1.42267 2.5,1.42267c0,11.08794 -0.30806,22.15729 1.44293,33.19895c2.25894,-2.99098 4.69042,-5.95007 6.84163,-8.91588c1.61335,-2.22428 1.97427,-4.896 3.65517,-7.03467l1.113,-2.74462c0.2367,-0.64564 1.24246,-1.13064 2.44728,-1.13064c0.56239,0 1.08141,0.10568 1.49908,0.28404c1.8641,-0.82478 3.41334,0.22234 3.41334,0.22234z" fill="#ff0000" stroke="none" stroke-width="0.5"/><path d="M268.03696,49.67884c2.5,0 2.5,1.42267 2.5,1.42267l-0.02779,2.6338c3.30393,5.92856 6.72518,11.43882 13.43147,16.44049c0.8737,0.65162 1.46869,1.4505 2.57778,1.97344c0.7355,0.3468 1.84098,0.3024 2.7147,0.52203c1.09236,0.27459 1.97521,0.89386 3.16441,0.95581c0.11049,0.00576 0.18262,-0.02016 0.23169,-0.06615c-1.18677,-0.11078 -2.09227,-0.69714 -2.09227,-1.40385v-2.84535h0.07606c-0.00207,-0.13696 0.00774,-0.27436 0.03121,-0.41227c0.12766,-0.75021 1.00847,-1.36029 1.92061,-1.95558c1.06637,-6.03814 1.19,-12.0633 3.24873,-18.07394c0.09336,-0.27258 1.92996,-5.66308 2.01836,-5.80097c0.0884,-0.13789 4.78264,-4.93515 5.01964,-5.17791c0,0 1.21411,-1.24364 3.3995,-0.55273c2.18539,0.69091 0.97129,1.93455 0.97129,1.93455c-1.55542,1.59326 -3.59559,3.05897 -4.69322,4.77122c-1.09763,1.71225 -1.19518,3.58124 -1.80792,5.3702c-1.54543,4.51203 -1.99371,9.04287 -2.58594,13.57776c2.3126,-1.56879 4.67472,-3.11613 6.77355,-4.78956l2.07444,-1.6527c0.45157,-0.3694 1.20302,-0.61119 2.0537,-0.61119c1.38071,0 2.5,0.63695 2.5,1.42267c0,0.16896 -0.05176,0.33104 -0.14675,0.48139l-0.98155,1.6757l-0.02093,-0.00397c-0.00633,0.02285 -0.01298,0.0457 -0.01995,0.06852c-0.00182,0.00597 -3.98136,5.10352 -4.05356,5.19419c-1.9315,2.42589 -3.6274,5.33174 -6.16389,7.5709c-0.07601,0.0671 -5.51492,3.9625 -6.47396,4.02976c-0.20435,0.01433 -9.00004,-1.42544 -10.12088,-1.93658c-3.86414,-1.76217 -6.94017,-5.05716 -9.19164,-7.49904c-3.86848,-4.19565 -6.40869,-8.25016 -8.79911,-12.78376l-0.02779,-3.05689c0,0 0,-1.42267 2.5,-1.42267zM299.24416,67.22965c-0.65485,0.44803 -1.31842,0.8887 -1.99107,1.31952c-0.08675,0.42916 -0.17932,0.8583 -0.27877,1.28742c0.82141,-0.82811 1.56755,-1.70664 2.26984,-2.60694z" fill="#ff0000" stroke="none" stroke-width="0.5"/><path d="M315.03696,61.06023c2.5,0 2.5,1.42267 2.5,1.42267l-0.00383,2.1976c0.48858,2.48027 0.74937,4.51361 2.45578,6.82128c0.55567,0.75146 0.695,1.64035 1.6097,2.26784c0.36823,0.25261 0.83408,0.44172 1.33674,0.60727l0.02836,-0.20255l0.08494,0.00385l-0.04269,-0.17437c2.12534,-3.63051 2.02038,-7.17213 2.80647,-10.9509c1.74766,-8.40117 3.7477,-17.29628 7.82071,-25.43085c0,0 0.6868,-1.36794 3.09061,-0.9771c2.40381,0.39084 1.71701,1.75877 1.71701,1.75877c-4.01821,7.98025 -5.94788,16.73893 -7.663,24.98368c-0.60227,2.89515 -0.6962,5.66987 -1.62991,8.44292c0.3977,-0.34541 0.81691,-0.71802 1.24901,-1.14064c2.63741,-2.57958 4.38562,-4.81208 8.8094,-6.58614c1.75139,-0.70236 3.59368,-2.34197 5.55021,-1.84499c4.82893,1.22659 3.02482,5.54914 1.92192,7.36058c-1.71078,2.80985 -4.72701,5.22789 -8.4092,7.2631c-1.42792,0.78923 -2.49247,1.92865 -4.35845,2.32314c-3.98873,0.84325 -6.22896,0.2929 -8.72126,-0.66091c-0.04332,0.00127 -0.08694,0.00191 -0.13082,0.00191c-1.1241,0 -2.07492,-0.42219 -2.38952,-1.00313c-0.08137,-0.03164 -0.16347,-0.06336 -0.24633,-0.09512c-1.57697,-0.60449 -3.45854,-1.02909 -4.67248,-1.86187c-1.21394,-0.83277 -1.58645,-1.9668 -2.35225,-2.95716c-2.01829,-2.61013 -2.31361,-4.98333 -2.8573,-7.79125l-0.00383,-2.35495c0,0 0,-1.42267 2.5,-1.42267zM332.02104,76.57107c1.21501,-0.3288 1.77966,-1.14916 2.71262,-1.70079c1.06689,-0.63083 2.36252,-1.14445 3.28469,-1.84528c2.43065,-1.84724 4.07881,-4.39699 4.89334,-6.6254c0.17115,-0.46824 1.1489,-1.19272 0.40575,-1.41607c-0.70968,-0.21329 -0.34194,0.93023 -0.85722,1.28039c-1.69915,1.15463 -3.90102,2.09775 -5.2251,3.40173c-2.0048,1.97436 -3.84072,4.7574 -7.00952,6.24383l-1.07218,0.70198c0.89144,0.19511 1.84764,0.23565 2.86762,-0.04038z" fill="#ff0000" stroke="none" stroke-width="0.5"/></g></g></svg>