<svg version="1.1" xmlns="http://www.w3.org/2000/svg" xmlns:xlink="http://www.w3.org/1999/xlink" width="610" height="388.30625" viewBox="0,0,610,388.30625"><g transform="translate(54.5,-6.69375)"><g data-paper-data="{&quot;isPaintingLayer&quot;:true}" fill-rule="nonzero" stroke-linecap="butt" stroke-linejoin="miter" stroke-miterlimit="10" stroke-dasharray="" stroke-dashoffset="0" style="mix-blend-mode: normal"><text transform="translate(15.83003,29.69375) scale(0.5,0.5)" font-size="40" xml:space="preserve" fill="#000000" fill-rule="nonzero" stroke="#ffffff" stroke-width="6" stroke-linecap="butt" stroke-linejoin="miter" stroke-miterlimit="10" stroke-dasharray="" stroke-dashoffset="0" font-family="Sans Serif" font-weight="normal" text-anchor="start" style="mix-blend-mode: normal"><tspan x="0" dy="0">i am le good developer who totally doesn't copy</tspan></text><path d="M-9.5,395v-115h539v115z" fill="#7f501a" stroke="none" stroke-width="0"/><path d="M-24.5,322v-38h541v38z" fill="#1c6d16" stroke="none" stroke-width="0"/><path d="M-37.5,309v-27h566v27z" fill="#23a719" stroke="none" stroke-width="0"/><path d="M-54.5,297v-20h610v20z" fill="#10ea00" stroke="none" stroke-width="0"/><text transform="translate(15.83003,29.69375) scale(0.5,0.5)" font-size="40" xml:space="preserve" fill="#000000" fill-rule="nonzero" stroke="#000000" stroke-width="3" stroke-linecap="butt" stroke-linejoin="miter" stroke-miterlimit="10" stroke-dasharray="" stroke-dashoffset="0" font-family="Sans Serif" font-weight="normal" text-anchor="start" style="mix-blend-mode: normal"><tspan x="0" dy="0">i am le good developer who totally doesn't copy</tspan></text><path d="M259.84253,383.89162v-174.77197h122.11831v174.77197z" fill="#7f501a" stroke="none" stroke-width="0"/><path d="M248.98037,221.55465v-34.59136h100.87895v34.59136z" fill="#1c6d16" stroke="none" stroke-width="0"/><path d="M248.97657,209.72077v-24.57808h103.06794v24.57808z" fill="#23a719" stroke="none" stroke-width="0"/><path d="M248.99753,198.79718v-18.20598h108.12595v18.20598z" fill="#10ea00" stroke="none" stroke-width="0"/><path d="M287.38463,221.48428v-34.59136h100.87895v34.59136z" data-paper-data="{&quot;index&quot;:null}" fill="#1c6d16" stroke="none" stroke-width="0"/><path d="M285.19943,209.65039v-24.57807h103.06794v24.57807z" data-paper-data="{&quot;index&quot;:null}" fill="#23a719" stroke="none" stroke-width="0"/><path d="M280.12049,198.7268v-18.20598h108.12596v18.20598z" data-paper-data="{&quot;index&quot;:null}" fill="#10ea00" stroke="none" stroke-width="0"/></g></g></svg>