<svg version="1.1" xmlns="http://www.w3.org/2000/svg" xmlns:xlink="http://www.w3.org/1999/xlink" width="988.77289" height="547.59023" viewBox="0,0,988.77289,547.59023"><defs><linearGradient x1="227.04702" y1="16" x2="227.04702" y2="192" gradientUnits="userSpaceOnUse" id="color-1"><stop offset="0" stop-color="#848089"/><stop offset="1" stop-color="#555258"/></linearGradient></defs><g transform="translate(288.57123,79)"><g data-paper-data="{&quot;isPaintingLayer&quot;:true}" fill-rule="nonzero" stroke-linejoin="miter" stroke-miterlimit="10" stroke-dasharray="" stroke-dashoffset="0" style="mix-blend-mode: normal"><g data-paper-data="{&quot;index&quot;:null}" stroke="none" stroke-width="0"><path d="M-105.5,220v-244h620v244z" fill="#558cff" stroke-linecap="butt"/><path d="M-67.5,194l86.53359,-137l43.26679,82l97.62764,-121l85.42418,114l56.57965,-75l39.93858,55l54.36084,-82l103.17466,157z" fill="#4c4a4f" stroke-linecap="round"/><path d="M-56.40594,192l86.53359,-137l43.26679,82l97.62764,-121l85.42418,114l56.57965,-75l39.93858,55l54.36084,-82l103.17466,157z" fill="url(#color-1)" stroke-linecap="round"/><path d="M232.00001,155c191.91895,0 347.5,48.5771 347.5,108.5c0,59.9229 -155.58105,108.5 -347.5,108.5c-191.91895,0 -347.5,-48.5771 -347.5,-108.5c0,-59.9229 155.58105,-108.5 347.5,-108.5z" fill="#37572b" stroke-linecap="butt"/><path d="M222.92684,409c-181.70168,0 -329,-50.14411 -329,-112c0,-61.85589 147.29832,-112 329,-112c181.70168,0 329,50.14411 329,112c0,61.85589 -147.29832,112 -329,112z" fill="#3d6230" stroke-linecap="butt"/><path d="M298.00001,-79c0.27614,0 0.5,0.22386 0.5,0.5c0,0.27614 -0.22386,0.5 -0.5,0.5c-0.27614,0 -0.5,-0.22386 -0.5,-0.5c0,-0.27614 0.22386,-0.5 0.5,-0.5z" fill="#37572b" stroke-linecap="butt"/></g><path d="M-288.57123,255.76681l2.22252,-24.53711l984.03774,89.13194l-2.22252,24.53711z" data-paper-data="{&quot;index&quot;:null}" fill="#1c6d16" stroke="none" stroke-width="0" stroke-linecap="butt"/><path d="M-286.96764,237.68108l3.40175,-37.55619l964.6625,87.37697l-3.40175,37.55619z" data-paper-data="{&quot;index&quot;:null}" fill="#23a719" stroke="none" stroke-width="0" stroke-linecap="butt"/><path d="M-285.26773,221.00648l2.51982,-27.81941l969.67108,87.83064l-2.51982,27.81941z" data-paper-data="{&quot;index&quot;:null}" fill="#10ea00" stroke="none" stroke-width="0" stroke-linecap="butt"/><path d="M-269.40879,381.77528l11.15287,-123.13039l958.45758,86.81495l-11.15287,123.13039z" data-paper-data="{&quot;index&quot;:null}" fill="#7f501a" stroke="none" stroke-width="0" stroke-linecap="butt"/><g fill="#000000" stroke="none" stroke-width="0" stroke-linecap="butt"><g><path d="M285.97099,205.73193l22.97962,-66.73947c0,0 40.1488,2.97752 60.70437,4.50196c9.76643,0.7243 33.09788,4.50029 43.73618,11.6805c12.47381,8.41906 11.42969,20.74542 9.35378,26.77446c-3.81324,11.07474 -11.39048,33.08124 -11.39048,33.08124z"/><path d="M220.86437,201.10073c0,0 7.57724,-22.00649 11.39048,-33.08124c1.97949,-5.74902 6.34086,-17.70886 22.86385,-23.8015c15.58282,-5.74597 43.10609,-5.82375 53.40436,-5.06c20.55557,1.52445 60.70437,4.50196 60.70437,4.50196l-22.97962,66.73947z" data-paper-data="{&quot;index&quot;:null}"/></g><g data-paper-data="{&quot;index&quot;:null}"><path d="M420.89068,187.33471c0,0 -7.57724,22.00649 -11.39048,33.08124c-1.96803,5.71574 -7.12671,20.3871 -23.53065,26.46507c-15.65616,5.8009 -42.37604,3.16487 -52.73755,2.39643c-20.55557,-1.52445 -60.70437,-4.50196 -60.70437,-4.50196l22.97962,-66.73947z"/><path d="M355.91652,182.31884l-22.97962,66.73947c0,0 -40.14876,-2.97752 -60.70437,-4.50196c-11.22519,-0.83248 -35.38998,-4.58202 -46.72658,-13.19878c-10.09194,-7.67071 -8.17485,-19.99516 -6.36338,-25.25618c3.81324,-11.07474 11.39048,-33.08124 11.39048,-33.08124z" data-paper-data="{&quot;index&quot;:null}"/></g></g><path d="M309.26577,227.94165c-35.08264,-2.6018 -58.31043,-19.84917 -51.88066,-38.52308c6.42976,-18.67389 40.08223,-31.70291 75.1649,-29.10111c35.08264,2.6018 58.31043,19.84917 51.88066,38.52308c-6.42976,18.67389 -40.08223,31.70291 -75.1649,29.10111z" fill="#ffffff" stroke="none" stroke-width="0" stroke-linecap="butt"/><path d="M312.76404,219.46896c-26.28671,-1.94948 -43.6908,-14.87257 -38.87311,-28.86455c4.81769,-13.99198 30.03279,-23.75434 56.31952,-21.80487c26.28671,1.94948 43.6908,14.87257 38.87311,28.86455c-4.81769,13.99198 -30.03279,23.75434 -56.31952,21.80487z" fill="#000000" stroke="none" stroke-width="0" stroke-linecap="butt"/><path d="M330.03355,190.99236c-7.58269,-0.56235 -12.60311,-4.29015 -11.21339,-8.32631c1.38972,-4.03613 8.66328,-6.8522 16.24601,-6.28986c7.58269,0.56235 12.60311,4.29015 11.21339,8.32631c-1.38972,4.03613 -8.66328,6.8522 -16.24601,6.28986z" fill="#ffffff" stroke="none" stroke-width="0" stroke-linecap="butt"/><text transform="translate(17.01005,316.81629) scale(1.58277,1.58277)" font-size="40" xml:space="preserve" fill="#000000" fill-rule="nonzero" stroke="#ffffff" stroke-width="7" stroke-linecap="butt" stroke-linejoin="miter" stroke-miterlimit="10" stroke-dasharray="" stroke-dashoffset="0" font-family="Sans Serif" font-weight="normal" text-anchor="start" style="mix-blend-mode: normal"><tspan x="0" dy="0">A "platformer"</tspan></text><text transform="translate(5.13029,91.47261) scale(2.24582,2.24582)" font-size="40" xml:space="preserve" fill="#000000" fill-rule="nonzero" stroke="#000000" stroke-width="4" stroke-linecap="butt" stroke-linejoin="miter" stroke-miterlimit="10" stroke-dasharray="" stroke-dashoffset="0" font-family="Sans Serif" font-weight="normal" text-anchor="start" style="mix-blend-mode: normal"><tspan x="0" dy="0">Original</tspan></text><text transform="translate(17.01005,315.55309) scale(1.57546,1.57546)" font-size="40" xml:space="preserve" fill="#000000" fill-rule="nonzero" stroke="#000000" stroke-width="4" stroke-linecap="butt" stroke-linejoin="miter" stroke-miterlimit="10" stroke-dasharray="" stroke-dashoffset="0" font-family="Sans Serif" font-weight="normal" text-anchor="start" style="mix-blend-mode: normal"><tspan x="0" dy="0">A "platformer"</tspan></text><g data-paper-data="{&quot;index&quot;:null}" stroke="none" stroke-width="0" stroke-linecap="butt"><path d="M118.2772,228.97704l32.3535,-52.90187l37.30565,59.129z" fill="#ff0000"/><path d="M49.02234,222.88094l102.01266,-46.67474l-32.3535,52.90187z" data-paper-data="{&quot;index&quot;:null}" fill="#a50000"/></g><g data-paper-data="{&quot;index&quot;:null}" stroke="none" stroke-width="0" stroke-linecap="butt"><path d="M-21.42428,216.92734l32.3535,-52.90187l37.30565,59.129z" fill="#ff0000"/><path d="M-90.67914,210.83123l102.01266,-46.67474l-32.3535,52.90187z" data-paper-data="{&quot;index&quot;:null}" fill="#a50000"/></g><text transform="translate(14.8757,151.72831) rotate(7.46167) scale(0.58454,0.32724) skewX(-0.00034)" font-size="40" xml:space="preserve" fill="#000000" fill-rule="nonzero" stroke="none" stroke-width="1" stroke-linecap="butt" stroke-linejoin="miter" stroke-miterlimit="10" stroke-dasharray="" stroke-dashoffset="0" font-family="Sans Serif" font-weight="normal" text-anchor="start" style="mix-blend-mode: normal"><tspan x="0" dy="0">not copied at all</tspan></text></g></g></svg>