<svg version="1.1" xmlns="http://www.w3.org/2000/svg" xmlns:xlink="http://www.w3.org/1999/xlink" width="195.00528" height="32.29388" viewBox="0,0,195.00528,32.29388"><g transform="translate(-158.71809,-330.42026)"><g data-paper-data="{&quot;isPaintingLayer&quot;:true}" fill-rule="nonzero" stroke="none" stroke-width="0" stroke-linecap="butt" stroke-linejoin="miter" stroke-miterlimit="10" stroke-dasharray="" stroke-dashoffset="0" style="mix-blend-mode: normal"><g><path d="M158.7181,362.66016l16.37447,-31.74128v31.74128z" fill="#ff0000"/><path d="M174.9846,362.71414v-31.74128l16.37447,31.74128z" data-paper-data="{&quot;index&quot;:null}" fill="#a50000"/></g><g><path d="M191.51377,362.42077l16.37447,-31.74128v31.74128z" fill="#ff0000"/><path d="M207.78027,362.47475v-31.74128l16.37447,31.74128z" data-paper-data="{&quot;index&quot;:null}" fill="#a50000"/></g><g><path d="M224.05612,362.42078l16.37447,-31.74128v31.74128z" fill="#ff0000"/><path d="M240.32261,362.47475v-31.74128l16.37447,31.74128z" data-paper-data="{&quot;index&quot;:null}" fill="#a50000"/></g><g><path d="M255.7444,362.40093l16.37447,-31.74128v31.74128z" fill="#ff0000"/><path d="M272.01088,362.45491v-31.74128l16.37447,31.74128z" data-paper-data="{&quot;index&quot;:null}" fill="#a50000"/></g><g><path d="M288.54007,362.16154l16.37447,-31.74128v31.74128z" fill="#ff0000"/><path d="M304.80656,362.21552v-31.74128l16.37447,31.74128z" data-paper-data="{&quot;index&quot;:null}" fill="#a50000"/></g><g><path d="M321.08241,362.16155l16.37447,-31.74128v31.74128z" fill="#ff0000"/><path d="M337.34891,362.21552v-31.74128l16.37447,31.74128z" data-paper-data="{&quot;index&quot;:null}" fill="#a50000"/></g></g></g></svg>