<svg version="1.1" xmlns="http://www.w3.org/2000/svg" xmlns:xlink="http://www.w3.org/1999/xlink" width="610" height="259.47919" viewBox="0,0,610,259.47919"><g transform="translate(54.5,-135.52082)"><g data-paper-data="{&quot;isPaintingLayer&quot;:true}" fill-rule="nonzero" stroke-linecap="butt" stroke-linejoin="miter" stroke-miterlimit="10" stroke-dasharray="" stroke-dashoffset="0" style="mix-blend-mode: normal"><path d="M-9.5,395.00001v-115h539v115z" fill="#7f501a" stroke="none" stroke-width="0"/><path d="M-54.5,297.00001v-20h610v20z" fill="#10ea00" stroke="none" stroke-width="0"/><path d="M-24.5,322.00001v-38h541v38z" fill="#1c6d16" stroke="none" stroke-width="0"/><path d="M158.49669,341.81382v-117.55614h44.21226v117.55614z" fill="#7f501a" stroke="none" stroke-width="0"/><path d="M149.85783,236.69267v-34.59136h44.38879v34.59136z" fill="#1c6d16" stroke="none" stroke-width="0"/><path d="M149.85615,224.85879v-24.57807h45.352v24.57807z" fill="#23a719" stroke="none" stroke-width="0"/><path d="M149.86537,213.93521v-18.20598h47.57762v18.20598z" fill="#10ea00" stroke="none" stroke-width="0"/><path d="M166.75648,236.62231v-34.59136h44.3888v34.59136z" data-paper-data="{&quot;index&quot;:null}" fill="#1c6d16" stroke="none" stroke-width="0"/><path d="M165.79495,224.78842v-24.57807h45.352v24.57807z" data-paper-data="{&quot;index&quot;:null}" fill="#23a719" stroke="none" stroke-width="0"/><path d="M163.56011,213.86483v-18.20598h47.57763v18.20598z" data-paper-data="{&quot;index&quot;:null}" fill="#10ea00" stroke="none" stroke-width="0"/><path d="M309.61711,338.89163v-174.77197h44.21226v174.77197z" fill="#7f501a" stroke="none" stroke-width="0"/><path d="M300.97824,176.55466v-34.59136h44.3888v34.59136z" fill="#1c6d16" stroke="none" stroke-width="0"/><path d="M300.97657,164.72077v-24.57808h45.352v24.57808z" fill="#23a719" stroke="none" stroke-width="0"/><path d="M300.98579,153.79718v-18.20598h47.57763v18.20598z" fill="#10ea00" stroke="none" stroke-width="0"/><path d="M317.8769,176.48429v-34.59136h44.3888v34.59136z" data-paper-data="{&quot;index&quot;:null}" fill="#1c6d16" stroke="none" stroke-width="0"/><path d="M316.91537,164.65039v-24.57807h45.352v24.57807z" data-paper-data="{&quot;index&quot;:null}" fill="#23a719" stroke="none" stroke-width="0"/><path d="M314.68053,153.7268v-18.20598h47.57763v18.20598z" data-paper-data="{&quot;index&quot;:null}" fill="#10ea00" stroke="none" stroke-width="0"/><path d="M-37.5,309.00001v-27h566v27z" fill="#23a719" stroke="none" stroke-width="0"/><text transform="translate(5.46007,302.00001) scale(0.5,0.5)" font-size="40" xml:space="preserve" fill="#000000" fill-rule="nonzero" stroke="#ffffff" stroke-width="6" stroke-linecap="butt" stroke-linejoin="miter" stroke-miterlimit="10" stroke-dasharray="" stroke-dashoffset="0" font-family="Sans Serif" font-weight="normal" text-anchor="start" style="mix-blend-mode: normal"><tspan x="0" dy="0">you know what would just be so insane!!!??!?!</tspan><tspan x="0" dy="48px">if you LIKE AND SUBSCRIBED, FOLLOWED, FAVED,</tspan><tspan x="0" dy="48px">COMMENTED, SHARED</tspan></text><text transform="translate(5.46007,302.00001) scale(0.5,0.5)" font-size="40" xml:space="preserve" fill="#000000" fill-rule="nonzero" stroke="#000000" stroke-width="3" stroke-linecap="butt" stroke-linejoin="miter" stroke-miterlimit="10" stroke-dasharray="" stroke-dashoffset="0" font-family="Sans Serif" font-weight="normal" text-anchor="start" style="mix-blend-mode: normal"><tspan x="0" dy="0">you know what would just be so insane!!!??!?!</tspan><tspan x="0" dy="48px">if you LIKE AND SUBSCRIBED, FOLLOWED, FAVED,</tspan><tspan x="0" dy="48px">COMMENTED, SHARED</tspan></text></g></g></svg>