<svg version="1.1" xmlns="http://www.w3.org/2000/svg" xmlns:xlink="http://www.w3.org/1999/xlink" width="79.17276" height="64.16664" viewBox="0,0,79.17276,64.16664"><g transform="translate(-317.48687,-193.56025)"><g data-paper-data="{&quot;isPaintingLayer&quot;:true}" fill-rule="nonzero" stroke="none" stroke-linecap="butt" stroke-linejoin="miter" stroke-miterlimit="10" stroke-dasharray="" stroke-dashoffset="0" style="mix-blend-mode: normal"><path d="M396.65963,220.25002c0,11.37496 -16.15509,20.59621 -36.08342,20.59621c-19.92832,0 -36.08342,-9.22124 -36.08342,-20.59621c0,-4.93257 3.03778,-17.50365 8.10371,-21.04997c6.61659,-4.63183 24.9294,-5.63979 36.21614,-5.63979c19.92832,0 27.84698,15.3148 27.84698,26.68976z" fill="#ff0000" stroke-width="NaN"/><path d="M364.1061,197.94761c0,6.73075 -19.80864,20.71809 -31.18078,20.71809c-11.37213,0 -1.37274,-2.53144 -1.37274,-9.2622c0,-6.73075 5.68904,-12.18712 17.06118,-12.18712c11.37213,0 15.49233,-5.99952 15.49233,0.73123z" fill="#ff4040" stroke-width="0"/><path d="M344.35333,215.7692c0,3.21393 -6.01426,5.81935 -13.43323,5.81935c-7.41897,0 -13.43323,-2.60541 -13.43323,-5.81935c0,-3.21393 6.01426,-5.81935 13.43323,-5.81935c7.41897,0 13.43323,2.60541 13.43323,5.81935z" fill="#000000" stroke-width="0"/><path d="M376.07008,215.1335c0,2.92787 -5.26797,5.3014 -11.76633,5.3014c-6.49837,0 -11.76633,-2.37352 -11.76633,-5.3014c0,-2.92787 5.26797,-5.3014 11.76633,-5.3014c6.49837,0 11.76633,2.37352 11.76633,5.3014z" fill="#000000" stroke-width="0"/><path d="M389.49815,228.2499c0,2.07928 -55.0076,2.07928 -55.0076,0c0,-2.07928 12.31386,-3.76486 27.5038,-3.76486c15.18993,0 27.5038,1.68559 27.5038,3.76486z" fill="#000000" stroke-width="0"/><text transform="translate(345.43129,253.45788) scale(0.39369,0.34152)" font-size="40" xml:space="preserve" fill="#ff0000" fill-rule="nonzero" stroke="none" stroke-width="1" stroke-linecap="butt" stroke-linejoin="miter" stroke-miterlimit="10" stroke-dasharray="" stroke-dashoffset="0" font-family="Sans Serif" font-weight="normal" text-anchor="start" style="mix-blend-mode: normal"><tspan x="0" dy="0">why</tspan></text></g></g></svg>