<svg version="1.1" xmlns="http://www.w3.org/2000/svg" xmlns:xlink="http://www.w3.org/1999/xlink" width="167" height="94.19386" viewBox="0,0,167,94.19386"><g transform="translate(-308.50002,-4)"><g data-paper-data="{&quot;isPaintingLayer&quot;:true}" fill-rule="nonzero" stroke="none" stroke-linejoin="miter" stroke-miterlimit="10" stroke-dasharray="" stroke-dashoffset="0" style="mix-blend-mode: normal"><path d="M308.50002,30c0,-14.35941 11.64059,-26 26,-26c14.35941,0 26,11.64059 26,26c0,14.35941 -11.64059,26 -26,26c-14.35941,0 -26,-11.64059 -26,-26z" fill="#ffffff" stroke-width="0" stroke-linecap="butt"/><path d="M334.50002,56v-52h70v52z" fill="#ffffff" stroke-width="0" stroke-linecap="butt"/><path d="M449.50002,56c-14.3594,0 -26,-11.64059 -26,-26c0,-14.35941 11.6406,-26 26,-26c14.3594,0 26,11.64059 26,26c0,14.35941 -11.6406,26 -26,26z" data-paper-data="{&quot;index&quot;:null}" fill="#ffffff" stroke-width="0" stroke-linecap="butt"/><path d="M379.50002,56v-52h70v52z" data-paper-data="{&quot;index&quot;:null}" fill="#ffffff" stroke-width="0" stroke-linecap="butt"/><g fill="#ff4a4a" stroke-width="0" stroke-linecap="butt"><path d="M318.16667,24.33333c0,-4.23418 3.35535,-7.66667 7.49439,-7.66667c4.13903,0 7.49438,3.43249 7.49438,7.66667c0,4.23418 -3.35535,7.66666 -7.49438,7.66666c-4.13903,0 -7.49439,-3.43248 -7.49439,-7.66666z"/><path d="M332.17793,24.66666c0,-4.23418 3.35534,-7.66666 7.49438,-7.66666c4.13904,0 7.49438,3.43248 7.49438,7.66666c0,4.23418 -3.35534,7.66667 -7.49438,7.66667c-4.13904,0 -7.49438,-3.43249 -7.49438,-7.66667z"/><path d="M332.66667,43.36108l-14.20128,-16.02775h28.40258z"/></g><path d="M377.30701,39.04776l-25.82667,-19.93334h30.33334l-26.34667,20.10667l11.96,-31.02667z" fill="#ffb900" stroke-width="0" stroke-linecap="round"/><text transform="translate(333.75864,72.81376) scale(0.51376,0.39349)" font-size="40" xml:space="preserve" fill="#000000" fill-rule="nonzero" stroke="none" stroke-width="1" stroke-linecap="butt" stroke-linejoin="miter" stroke-miterlimit="10" stroke-dasharray="" stroke-dashoffset="0" font-family="Handwriting" font-weight="normal" text-anchor="start" style="mix-blend-mode: normal"><tspan x="0" dy="0">annoying thing</tspan><tspan x="0" dy="48px">in original font</tspan></text><path d="M391.29994,23.73062c0,-3.88539 3.14973,-7.03511 7.03511,-7.03511c3.88539,0 7.03511,3.14973 7.03511,7.03511c0,3.88539 -3.14973,7.03511 -7.03511,7.03511c-3.88539,0 -7.03511,-3.14973 -7.03511,-7.03511z" fill="#006eff" stroke-width="NaN" stroke-linecap="butt"/><path d="M385.96496,38.86588c0,-5.52382 5.48578,-10.00176 12.25282,-10.00176c6.76705,0 12.25282,4.47794 12.25282,10.00176c0,5.52382 -24.50565,5.52382 -24.50565,0z" fill="#006eff" stroke-width="0" stroke-linecap="butt"/><text transform="translate(419.85824,33.11455) scale(0.17549,0.5)" font-size="40" xml:space="preserve" fill="#000000" fill-rule="nonzero" stroke="none" stroke-width="1" stroke-linecap="butt" stroke-linejoin="miter" stroke-miterlimit="10" stroke-dasharray="" stroke-dashoffset="0" font-family="Pixel" font-weight="normal" text-anchor="start" style="mix-blend-mode: normal"><tspan x="0" dy="0">do it or else </tspan></text></g></g></svg>