<svg version="1.1" xmlns="http://www.w3.org/2000/svg" xmlns:xlink="http://www.w3.org/1999/xlink" width="53.20834" height="55.53891" viewBox="0,0,53.20834,55.53891"><g transform="translate(-213.39583,-152.23056)"><g data-paper-data="{&quot;isPaintingLayer&quot;:true}" fill-rule="nonzero" stroke="none" stroke-width="0" stroke-linecap="butt" stroke-linejoin="miter" stroke-miterlimit="10" stroke-dasharray="" stroke-dashoffset="0" style="mix-blend-mode: normal"><g data-paper-data="{&quot;index&quot;:null}" fill="#000000"><g><path d="M231.56945,187.26527v-35.03471c0,0 11.2184,0 16.96205,0c2.72894,0 9.44014,1.04714 13.01229,4.31867c4.18848,3.83599 5.06038,10.1852 5.06038,13.35013c0,5.81366 0,17.36591 0,17.36591z"/><path d="M213.39583,187.36624c0,0 0,-11.55225 0,-17.36591c0,-3.01793 0.06631,-9.30546 3.99664,-13.05138c3.70669,-3.53278 11.19847,-4.61742 14.07602,-4.61742c5.74365,0 16.96205,0 16.96205,0v35.03471z" data-paper-data="{&quot;index&quot;:null}"/></g><g data-paper-data="{&quot;index&quot;:null}"><path d="M266.60417,172.72637c0,0 0,11.55225 0,17.36591c0,3.00046 -0.02917,10.70622 -3.92844,14.44011c-3.72152,3.56368 -11.249,3.22869 -14.14422,3.22869c-5.74365,0 -16.96205,0 -16.96205,0v-35.03471z"/><path d="M248.43055,172.62541v35.03471c0,0 -11.21839,0 -16.96205,0c-3.13655,0 -10.07232,-1.00196 -13.9695,-4.98232c-3.4693,-3.54335 -4.10317,-9.92472 -4.10317,-12.68648c0,-5.81366 0,-17.36591 0,-17.36591z" data-paper-data="{&quot;index&quot;:null}"/></g></g><path d="M240,197.74959c-9.80281,0 -17.74957,-7.94675 -17.74957,-17.74957c0,-9.80281 7.94675,-17.74957 17.74957,-17.74957c9.80281,0 17.74957,7.94675 17.74957,17.74957c0,9.80281 -7.94675,17.74957 -17.74957,17.74957z" data-paper-data="{&quot;index&quot;:null}" fill="#ffffff"/><path d="M236,193.29941c-7.34505,0 -13.29939,-5.95434 -13.29939,-13.29939c0,-7.34505 5.95434,-13.29939 13.29939,-13.29939c7.34505,0 13.29939,5.95434 13.29939,13.29939c0,7.34505 -5.95434,13.29939 -13.29939,13.29939z" data-paper-data="{&quot;index&quot;:null}" fill="#000000"/><path d="M230.1921,178.04774c-2.11876,0 -3.83636,-1.71759 -3.83636,-3.83636c0,-2.11876 1.71759,-3.83636 3.83636,-3.83636c2.11876,0 3.83636,1.71759 3.83636,3.83636c0,2.11876 -1.71759,3.83636 -3.83636,3.83636z" data-paper-data="{&quot;index&quot;:null}" fill="#ffffff"/></g></g></svg>