<svg version="1.1" xmlns="http://www.w3.org/2000/svg" xmlns:xlink="http://www.w3.org/1999/xlink" width="684.83009" height="445.16063" viewBox="0,0,684.83009,445.16063"><g transform="translate(105.37467,-5)"><g data-paper-data="{&quot;isPaintingLayer&quot;:true}" fill-rule="nonzero" stroke-linecap="butt" stroke-linejoin="miter" stroke-miterlimit="10" stroke-dasharray="" stroke-dashoffset="0" style="mix-blend-mode: normal"><text transform="translate(13.51006,28) scale(0.58334,0.5)" font-size="40" xml:space="preserve" fill="#000000" fill-rule="nonzero" stroke="#ffffff" stroke-width="6" stroke-linecap="butt" stroke-linejoin="miter" stroke-miterlimit="10" stroke-dasharray="" stroke-dashoffset="0" font-family="Sans Serif" font-weight="normal" text-anchor="start" style="mix-blend-mode: normal"><tspan x="0" dy="0">don't you just love stealing things?</tspan></text><text transform="translate(13.51006,28) scale(0.58334,0.5)" font-size="40" xml:space="preserve" fill="#000000" fill-rule="nonzero" stroke="#000000" stroke-width="3" stroke-linecap="butt" stroke-linejoin="miter" stroke-miterlimit="10" stroke-dasharray="" stroke-dashoffset="0" font-family="Sans Serif" font-weight="normal" text-anchor="start" style="mix-blend-mode: normal"><tspan x="0" dy="0">don't you just love stealing things?</tspan></text><path d="M-49.88908,310.97678l-3.08926,-17.94197c0,0 212.38807,-3.91036 315.59232,-36.3017c15.80548,-4.96065 48.27997,-57.86266 70.76344,-49.64295c66.78034,24.41416 178.29126,-91.27357 178.29126,-91.27357l63.82606,87.48121z" data-paper-data="{&quot;index&quot;:null}" fill="#10ea00" stroke="none" stroke-width="0"/><path d="M-44.68402,321.16489l-3.29026,-12.77848c0,0 336.72667,-55.37893 441.85569,-86.27882c64.09867,-18.84011 128.3635,-93.02394 128.3635,-93.02394l55.22462,84.95845z" data-paper-data="{&quot;index&quot;:null}" fill="#23a719" stroke="none" stroke-width="0"/><path d="M-68.39773,348.1862l8.21431,-24.40706c0,0 371.67157,-58.695 479.90351,-87.72042c65.93296,-17.68177 107.21284,-92.85366 107.21284,-92.85366l52.52249,82.50313z" data-paper-data="{&quot;index&quot;:null}" fill="#1c6d16" stroke="none" stroke-width="0"/><path d="M-105.37467,450.16063l35.94171,-105.12777c0,0 425.56134,-84.53105 521.83704,-108.37457c30.68366,-7.59908 80.93969,-74.88798 80.93969,-74.88798l43.2802,199.31382z" data-paper-data="{&quot;index&quot;:null}" fill="#7f501a" stroke="none" stroke-width="0"/></g></g></svg>