<svg version="1.1" xmlns="http://www.w3.org/2000/svg" xmlns:xlink="http://www.w3.org/1999/xlink" width="53.20834" height="55.53891" viewBox="0,0,53.20834,55.53891"><g transform="translate(-213.39583,-152.23056)"><g data-paper-data="{&quot;isPaintingLayer&quot;:true}" fill-rule="nonzero" stroke="none" stroke-width="0" stroke-linecap="butt" stroke-linejoin="miter" stroke-miterlimit="10" stroke-dasharray="" stroke-dashoffset="0" style="mix-blend-mode: normal"><g fill="#000000"><g><path d="M213.39583,187.26527c0,0 0,-11.55225 0,-17.36591c0,-3.16493 0.8719,-9.51414 5.06038,-13.35013c3.57215,-3.27153 10.28335,-4.31867 13.01229,-4.31867c5.74365,0 16.96205,0 16.96205,0v35.03471z"/><path d="M231.56946,187.36624v-35.03471c0,0 11.2184,0 16.96205,0c2.87755,0 10.36933,1.08464 14.07602,4.61742c3.93033,3.74592 3.99664,10.03345 3.99664,13.05138c0,5.81366 0,17.36591 0,17.36591z" data-paper-data="{&quot;index&quot;:null}"/></g><g data-paper-data="{&quot;index&quot;:null}"><path d="M248.43054,172.72637v35.03471c0,0 -11.2184,0 -16.96205,0c-2.89522,0 -10.4227,0.33499 -14.14422,-3.22869c-3.89927,-3.73389 -3.92844,-11.43965 -3.92844,-14.44011c0,-5.81366 0,-17.36591 0,-17.36591z"/><path d="M266.60417,172.62541c0,0 0,11.55225 0,17.36591c0,2.76176 -0.63387,9.14313 -4.10317,12.68648c-3.89718,3.98036 -10.83295,4.98232 -13.9695,4.98232c-5.74366,0 -16.96205,0 -16.96205,0v-35.03471z" data-paper-data="{&quot;index&quot;:null}"/></g></g><path d="M222.25043,180.00002c0,-9.80282 7.94676,-17.74957 17.74957,-17.74957c9.80282,0 17.74957,7.94676 17.74957,17.74957c0,9.80282 -7.94676,17.74957 -17.74957,17.74957c-9.80282,0 -17.74957,-7.94676 -17.74957,-17.74957z" fill="#ffffff"/><path d="M230.45061,180.00002c0,-7.34505 5.95434,-13.29939 13.29939,-13.29939c7.34505,0 13.29939,5.95434 13.29939,13.29939c0,7.34505 -5.95434,13.29939 -13.29939,13.29939c-7.34505,0 -13.29939,-5.95434 -13.29939,-13.29939z" fill="#000000"/><path d="M233.97154,174.21138c0,-2.11877 1.7176,-3.83636 3.83636,-3.83636c2.11877,0 3.83636,1.7176 3.83636,3.83636c0,2.11877 -1.7176,3.83636 -3.83636,3.83636c-2.11877,0 -3.83636,-1.7176 -3.83636,-3.83636z" fill="#ffffff"/></g></g></svg>